# Blender v2.93.1 OBJ File: ''
# www.blender.org
mtllib normal.mtl
o Cylinder_Cylinder.001
v 0.000000 -0.000430 -0.029202
v 0.000000 1.529575 -0.029202
v 0.018771 -0.000430 -0.022370
v 0.018771 1.529575 -0.022370
v 0.028759 -0.000430 -0.005071
v 0.028759 1.529575 -0.005071
v 0.025290 -0.000430 0.014601
v 0.025290 1.529575 0.014601
v 0.009988 -0.000430 0.027441
v 0.009988 1.529575 0.027441
v -0.009988 -0.000430 0.027441
v -0.009988 1.529575 0.027441
v -0.025290 -0.000430 0.014601
v -0.025290 1.529575 0.014601
v -0.028759 -0.000430 -0.005071
v -0.028759 1.529575 -0.005071
v -0.018771 -0.000430 -0.022370
v -0.018771 1.529575 -0.022370
v 0.000000 1.506051 -0.110000
v 0.070707 1.506051 -0.084265
v 0.108329 1.506051 -0.019101
v 0.095263 1.506051 0.055000
v 0.037622 1.506051 0.103366
v -0.037622 1.506051 0.103366
v -0.095263 1.506051 0.055000
v -0.108329 1.506051 -0.019101
v -0.070707 1.506051 -0.084265
v 0.000000 1.746051 0.000000
vt 1.000000 0.500000
vt 1.000000 1.000000
vt 0.888889 1.000000
vt 0.888889 0.500000
vt 0.777778 1.000000
vt 0.777778 0.500000
vt 0.666667 1.000000
vt 0.666667 0.500000
vt 0.555556 1.000000
vt 0.555556 0.500000
vt 0.444444 1.000000
vt 0.444444 0.500000
vt 0.333333 1.000000
vt 0.333333 0.500000
vt 0.222222 1.000000
vt 0.222222 0.500000
vt 0.404269 0.433851
vt 0.250000 0.490000
vt 0.095731 0.433851
vt 0.013646 0.291676
vt 0.042154 0.130000
vt 0.167915 0.024474
vt 0.332085 0.024474
vt 0.457846 0.130000
vt 0.486354 0.291676
vt 0.111111 1.000000
vt 0.111111 0.500000
vt 0.000000 1.000000
vt 0.000000 0.500000
vt 0.750000 0.490000
vt 0.904269 0.433851
vt 0.986354 0.291676
vt 0.957846 0.130000
vt 0.832085 0.024474
vt 0.667915 0.024474
vt 0.542154 0.130000
vt 0.513646 0.291676
vt 0.595731 0.433851
vt 0.250000 0.490000
vt 0.250000 0.250000
vt 0.404269 0.433851
vt 0.486354 0.291676
vt 0.457846 0.130000
vt 0.332085 0.024474
vt 0.167915 0.024474
vt 0.042154 0.130000
vt 0.013646 0.291676
vt 0.750000 0.490000
vt 0.904269 0.433851
vt 0.986354 0.291676
vt 0.957846 0.130000
vt 0.832085 0.024474
vt 0.667915 0.024474
vt 0.542154 0.130000
vt 0.513646 0.291676
vt 0.595731 0.433851
vt 0.095731 0.433851
vn 0.3420 0.0000 -0.9397
vn 0.8660 0.0000 -0.5000
vn 0.9848 0.0000 0.1736
vn 0.6428 0.0000 0.7660
vn 0.0000 0.0000 1.0000
vn -0.6428 0.0000 0.7660
vn -0.9848 0.0000 0.1736
vn 0.0000 1.0000 0.0000
vn -0.8660 0.0000 -0.5000
vn -0.3420 0.0000 -0.9397
vn 0.0000 -1.0000 -0.0000
vn 0.3141 0.3956 -0.8630
vn 0.7954 0.3956 -0.4592
vn 0.9045 0.3956 0.1595
vn 0.5904 0.3956 0.7036
vn 0.0000 0.3956 0.9184
vn -0.5904 0.3956 0.7036
vn -0.9045 0.3956 0.1595
vn -0.7954 0.3956 -0.4592
vn -0.3141 0.3956 -0.8630
usemtl Material.001
s off
f 1/1/1 2/2/1 4/3/1 3/4/1
f 3/4/2 4/3/2 6/5/2 5/6/2
f 5/6/3 6/5/3 8/7/3 7/8/3
f 7/8/4 8/7/4 10/9/4 9/10/4
f 9/10/5 10/9/5 12/11/5 11/12/5
f 11/12/6 12/11/6 14/13/6 13/14/6
f 13/14/7 14/13/7 16/15/7 15/16/7
f 4/17/8 2/18/8 18/19/8 16/20/8 14/21/8 12/22/8 10/23/8 8/24/8 6/25/8
f 15/16/9 16/15/9 18/26/9 17/27/9
f 17/27/10 18/26/10 2/28/10 1/29/10
f 1/30/11 3/31/11 5/32/11 7/33/11 9/34/11 11/35/11 13/36/11 15/37/11 17/38/11
f 19/39/12 28/40/12 20/41/12
f 20/41/13 28/40/13 21/42/13
f 21/42/14 28/40/14 22/43/14
f 22/43/15 28/40/15 23/44/15
f 23/44/16 28/40/16 24/45/16
f 24/45/17 28/40/17 25/46/17
f 25/46/18 28/40/18 26/47/18
f 19/48/11 20/49/11 21/50/11 22/51/11 23/52/11 24/53/11 25/54/11 26/55/11 27/56/11
f 26/47/19 28/40/19 27/57/19
f 27/57/20 28/40/20 19/39/20
