# Blender v2.93.1 OBJ File: ''
# www.blender.org
mtllib normalVector.mtl
o Cylinder_Cylinder.003
v 0.000000 1.835946 -0.027832
v 0.005430 1.835946 -0.027298
v 0.010651 1.835946 -0.025714
v 0.015463 1.835946 -0.023142
v 0.019681 1.835946 -0.019681
v 0.023142 1.835946 -0.015463
v 0.025714 1.835946 -0.010651
v 0.027298 1.835946 -0.005430
v 0.027832 1.835946 0.000000
v 0.027298 1.835946 0.005430
v 0.025714 1.835946 0.010651
v 0.023142 1.835946 0.015463
v 0.019681 1.835946 0.019681
v 0.015463 1.835946 0.023142
v 0.010651 1.835946 0.025714
v 0.005430 1.835946 0.027298
v -0.000000 1.835946 0.027832
v -0.005430 -0.000028 0.027298
v -0.005430 1.835946 0.027298
v -0.010651 -0.000028 0.025714
v -0.010651 1.835946 0.025714
v -0.015463 1.835946 0.023142
v -0.019681 -0.000028 0.019681
v -0.019681 1.835946 0.019681
v -0.023142 -0.000028 0.015463
v -0.023142 1.835946 0.015463
v -0.025714 -0.000028 0.010651
v -0.025714 1.835946 0.010651
v -0.027298 1.835946 0.005430
v -0.027832 1.835946 -0.000000
v -0.027298 1.835946 -0.005430
v -0.025714 1.835946 -0.010651
v -0.023142 1.835946 -0.015463
v -0.019681 1.835946 -0.019681
v -0.015463 1.835946 -0.023142
v -0.010651 1.835946 -0.025714
v -0.005430 1.835946 -0.027298
v -0.000000 1.708109 0.120872
v -0.023581 1.708109 0.118549
v -0.046256 1.708109 0.111671
v -0.067153 1.708109 0.100501
v 0.000000 1.949853 0.000000
v 0.000000 -0.000028 -0.027832
v 0.000000 1.835946 -0.027832
v 0.005430 -0.000028 -0.027298
v 0.005430 1.835946 -0.027298
v 0.010651 -0.000028 -0.025714
v 0.010651 1.835946 -0.025714
v 0.015463 -0.000028 -0.023142
v 0.015463 1.835946 -0.023142
v 0.019681 -0.000028 -0.019681
v 0.019681 1.835946 -0.019681
v 0.023142 -0.000028 -0.015463
v 0.023142 1.835946 -0.015463
v 0.025714 -0.000028 -0.010651
v 0.025714 1.835946 -0.010651
v 0.027298 -0.000028 -0.005430
v 0.027298 1.835946 -0.005430
v 0.027832 -0.000028 0.000000
v 0.027832 1.835946 0.000000
v 0.027298 -0.000028 0.005430
v 0.027298 1.835946 0.005430
v 0.025714 -0.000028 0.010651
v 0.025714 1.835946 0.010651
v 0.023142 -0.000028 0.015463
v 0.023142 1.835946 0.015463
v 0.019681 -0.000028 0.019681
v 0.019681 1.835946 0.019681
v 0.015463 -0.000028 0.023142
v 0.015463 1.835946 0.023142
v 0.010651 -0.000028 0.025714
v 0.010651 1.835946 0.025714
v 0.005430 -0.000028 0.027298
v 0.005430 1.835946 0.027298
v -0.000000 -0.000028 0.027832
v -0.000000 1.835946 0.027832
v -0.005430 -0.000028 0.027298
v -0.005430 1.835946 0.027298
v -0.010651 -0.000028 0.025714
v -0.010651 1.835946 0.025714
v -0.015463 -0.000028 0.023142
v -0.015463 1.835946 0.023142
v -0.019681 -0.000028 0.019681
v -0.019681 1.835946 0.019681
v -0.023142 -0.000028 0.015463
v -0.025714 -0.000028 0.010651
v -0.025714 1.835946 0.010651
v -0.027298 -0.000028 0.005430
v -0.027298 1.835946 0.005430
v -0.027832 -0.000028 -0.000000
v -0.027832 1.835946 -0.000000
v -0.027298 -0.000028 -0.005430
v -0.027298 1.835946 -0.005430
v -0.025714 -0.000028 -0.010651
v -0.025714 1.835946 -0.010651
v -0.023142 -0.000028 -0.015463
v -0.023142 1.835946 -0.015463
v -0.019681 -0.000028 -0.019681
v -0.019681 1.835946 -0.019681
v -0.015463 -0.000028 -0.023142
v -0.015463 1.835946 -0.023142
v -0.010651 -0.000028 -0.025714
v -0.010651 1.835946 -0.025714
v -0.005430 -0.000028 -0.027298
v -0.005430 1.835946 -0.027298
v 0.000000 1.708109 -0.120872
v 0.023581 1.708109 -0.118549
v 0.046256 1.708109 -0.111671
v 0.067153 1.708109 -0.100501
v 0.085469 1.708109 -0.085469
v 0.100501 1.708109 -0.067153
v 0.111671 1.708109 -0.046256
v 0.118549 1.708109 -0.023581
v 0.120872 1.708109 0.000000
v 0.118549 1.708109 0.023581
v 0.111671 1.708109 0.046256
v 0.100501 1.708109 0.067153
v 0.085469 1.708109 0.085469
v 0.067153 1.708109 0.100501
v 0.046256 1.708109 0.111671
v 0.023581 1.708109 0.118549
v -0.000000 1.708109 0.120872
v -0.023581 1.708109 0.118549
v -0.046256 1.708109 0.111671
v -0.067153 1.708109 0.100501
v -0.085469 1.708109 0.085469
v -0.100501 1.708109 0.067153
v -0.111671 1.708109 0.046256
v -0.118549 1.708109 0.023581
v -0.120872 1.708109 -0.000000
v -0.118549 1.708109 -0.023581
v -0.111671 1.708109 -0.046256
v -0.100501 1.708109 -0.067153
v -0.085469 1.708109 -0.085469
v -0.067153 1.708109 -0.100501
v -0.046256 1.708109 -0.111671
v -0.023581 1.708109 -0.118549
v 0.000000 1.949853 0.000000
vt 0.250000 0.010000
vt 0.250000 0.250000
vt 0.203178 0.014612
vt 0.158156 0.028269
vt 0.116663 0.050447
vt 0.250000 0.490000
vt 0.250000 0.250000
vt 0.296822 0.485388
vt 0.341844 0.471731
vt 0.383337 0.449553
vt 0.419706 0.419706
vt 0.449553 0.383337
vt 0.471731 0.341844
vt 0.485388 0.296822
vt 0.490000 0.250000
vt 0.485388 0.203178
vt 0.471731 0.158156
vt 0.449553 0.116663
vt 0.419706 0.080294
vt 0.383337 0.050447
vt 0.341844 0.028269
vt 0.296822 0.014612
vt 0.250000 0.010000
vt 0.116663 0.050447
vt 0.080294 0.080294
vt 0.050447 0.116663
vt 0.028269 0.158156
vt 0.014612 0.203178
vt 0.010000 0.250000
vt 0.014612 0.296822
vt 0.028269 0.341844
vt 0.050447 0.383337
vt 0.080294 0.419706
vt 0.116663 0.449553
vt 0.158156 0.471731
vt 0.750000 0.490000
vt 0.796822 0.485388
vt 0.841844 0.471731
vt 0.883337 0.449553
vt 0.919706 0.419706
vt 0.949553 0.383337
vt 0.971731 0.341844
vt 0.985388 0.296822
vt 0.990000 0.250000
vt 0.985388 0.203178
vt 0.971731 0.158156
vt 0.949553 0.116663
vt 0.919706 0.080294
vt 0.883337 0.050447
vt 0.841844 0.028269
vt 0.796822 0.014612
vt 0.750000 0.010000
vt 0.703178 0.014612
vt 0.658156 0.028269
vt 0.616663 0.050447
vt 0.580294 0.080294
vt 0.550447 0.116663
vt 0.528269 0.158156
vt 0.514612 0.203178
vt 0.510000 0.250000
vt 0.514612 0.296822
vt 0.528269 0.341844
vt 0.550447 0.383337
vt 0.580294 0.419706
vt 0.616663 0.449553
vt 0.658156 0.471731
vt 0.703178 0.485388
vt 0.203178 0.485388
vt 0.468750 0.500000
vt 0.468750 1.000000
vt 0.437500 1.000000
vt 0.437500 0.500000
vt 0.375000 0.500000
vt 0.375000 1.000000
vt 0.343750 1.000000
vt 0.343750 0.500000
vt 0.312500 1.000000
vt 0.312500 0.500000
vt 0.296822 0.485388
vt 0.250000 0.490000
vt 0.203178 0.485388
vt 0.158156 0.471731
vt 0.116663 0.449553
vt 0.080294 0.419706
vt 0.050447 0.383337
vt 0.028269 0.341844
vt 0.014612 0.296822
vt 0.010000 0.250000
vt 0.014612 0.203178
vt 0.028269 0.158156
vt 0.050447 0.116663
vt 0.080294 0.080294
vt 0.116663 0.050447
vt 0.158156 0.028269
vt 0.203178 0.014612
vt 0.250000 0.010000
vt 0.296822 0.014612
vt 0.341844 0.028269
vt 0.383337 0.050447
vt 0.419706 0.080294
vt 0.449553 0.116663
vt 0.471731 0.158156
vt 0.485388 0.203178
vt 0.490000 0.250000
vt 0.485388 0.296822
vt 0.471731 0.341844
vt 0.449553 0.383337
vt 0.419706 0.419706
vt 0.383337 0.449553
vt 0.341844 0.471731
vt 1.000000 0.500000
vt 1.000000 1.000000
vt 0.968750 1.000000
vt 0.968750 0.500000
vt 0.937500 1.000000
vt 0.937500 0.500000
vt 0.906250 1.000000
vt 0.906250 0.500000
vt 0.875000 1.000000
vt 0.875000 0.500000
vt 0.843750 1.000000
vt 0.843750 0.500000
vt 0.812500 1.000000
vt 0.812500 0.500000
vt 0.781250 1.000000
vt 0.781250 0.500000
vt 0.750000 1.000000
vt 0.750000 0.500000
vt 0.718750 1.000000
vt 0.718750 0.500000
vt 0.687500 1.000000
vt 0.687500 0.500000
vt 0.656250 1.000000
vt 0.656250 0.500000
vt 0.625000 1.000000
vt 0.625000 0.500000
vt 0.593750 1.000000
vt 0.593750 0.500000
vt 0.562500 1.000000
vt 0.562500 0.500000
vt 0.531250 1.000000
vt 0.531250 0.500000
vt 0.500000 1.000000
vt 0.500000 0.500000
vt 0.468750 1.000000
vt 0.468750 0.500000
vt 0.437500 0.500000
vt 0.437500 1.000000
vt 0.406250 1.000000
vt 0.406250 0.500000
vt 0.375000 1.000000
vt 0.375000 0.500000
vt 0.312500 0.500000
vt 0.312500 1.000000
vt 0.281250 1.000000
vt 0.281250 0.500000
vt 0.250000 1.000000
vt 0.250000 0.500000
vt 0.218750 1.000000
vt 0.218750 0.500000
vt 0.187500 1.000000
vt 0.187500 0.500000
vt 0.156250 1.000000
vt 0.156250 0.500000
vt 0.125000 1.000000
vt 0.125000 0.500000
vt 0.093750 1.000000
vt 0.093750 0.500000
vt 0.062500 1.000000
vt 0.062500 0.500000
vt 0.031250 1.000000
vt 0.031250 0.500000
vt 0.000000 1.000000
vt 0.000000 0.500000
vt 0.750000 0.490000
vt 0.796822 0.485388
vt 0.841844 0.471731
vt 0.883337 0.449553
vt 0.919706 0.419706
vt 0.949553 0.383337
vt 0.971731 0.341844
vt 0.985388 0.296822
vt 0.990000 0.250000
vt 0.985388 0.203178
vt 0.971731 0.158156
vt 0.949553 0.116663
vt 0.919706 0.080294
vt 0.883337 0.050447
vt 0.841844 0.028269
vt 0.796822 0.014612
vt 0.750000 0.010000
vt 0.703178 0.014612
vt 0.658156 0.028269
vt 0.616663 0.050447
vt 0.580294 0.080294
vt 0.550447 0.116663
vt 0.528269 0.158156
vt 0.514612 0.203178
vt 0.510000 0.250000
vt 0.514612 0.296822
vt 0.528269 0.341844
vt 0.550447 0.383337
vt 0.580294 0.419706
vt 0.616663 0.449553
vt 0.658156 0.471731
vt 0.703178 0.485388
vn -0.0878 0.4455 0.8910
vn -0.2599 0.4455 0.8567
vn -0.4220 0.4455 0.7896
vn 0.0878 0.4455 -0.8910
vn 0.2599 0.4455 -0.8567
vn 0.4220 0.4455 -0.7896
vn 0.5680 0.4455 -0.6921
vn 0.6921 0.4455 -0.5680
vn 0.7896 0.4455 -0.4220
vn 0.8567 0.4455 -0.2599
vn 0.8910 0.4455 -0.0878
vn 0.8910 0.4455 0.0878
vn 0.8567 0.4455 0.2599
vn 0.7896 0.4455 0.4220
vn 0.6921 0.4455 0.5680
vn 0.5680 0.4455 0.6921
vn 0.4220 0.4455 0.7896
vn 0.2599 0.4455 0.8567
vn 0.0878 0.4455 0.8910
vn -0.5680 0.4455 0.6921
vn -0.6921 0.4455 0.5680
vn -0.7896 0.4455 0.4220
vn -0.8567 0.4455 0.2599
vn -0.8910 0.4455 0.0878
vn -0.8910 0.4455 -0.0878
vn -0.8567 0.4455 -0.2599
vn -0.7896 0.4455 -0.4220
vn -0.6921 0.4455 -0.5680
vn -0.5680 0.4455 -0.6921
vn -0.4220 0.4455 -0.7896
vn 0.0000 -1.0000 -0.0000
vn -0.2599 0.4455 -0.8567
vn -0.0878 0.4455 -0.8910
vn -0.2903 0.0000 0.9569
vn -0.1366 0.8824 0.4503
vn -0.7730 0.0000 0.6344
vn -0.3638 0.8824 0.2985
vn -0.6052 0.6857 0.4044
vn -0.8314 0.0000 0.5556
vn -0.4150 0.8824 0.2218
vn -0.8819 0.0000 0.4714
vn 0.0000 1.0000 0.0000
vn 0.0000 -0.6857 -0.7279
vn 0.0000 0.0000 -1.0000
vn 0.1951 0.0000 -0.9808
vn 0.1420 -0.6857 -0.7139
vn 0.3827 0.0000 -0.9239
vn 0.2785 -0.6857 -0.6725
vn 0.5556 0.0000 -0.8314
vn 0.4044 -0.6857 -0.6052
vn 0.7071 0.0000 -0.7071
vn 0.5147 -0.6857 -0.5147
vn 0.8314 0.0000 -0.5556
vn 0.6052 -0.6857 -0.4044
vn 0.9239 0.0000 -0.3827
vn 0.6725 -0.6857 -0.2785
vn 0.9808 0.0000 -0.1951
vn 0.7139 -0.6857 -0.1420
vn 1.0000 0.0000 0.0000
vn 0.7279 -0.6857 0.0000
vn 0.9808 0.0000 0.1951
vn 0.7139 -0.6857 0.1420
vn 0.9239 0.0000 0.3827
vn 0.6725 -0.6857 0.2785
vn 0.8314 0.0000 0.5556
vn 0.6052 -0.6857 0.4044
vn 0.7071 0.0000 0.7071
vn 0.5147 -0.6857 0.5147
vn 0.5556 0.0000 0.8314
vn 0.4044 -0.6857 0.6052
vn 0.3827 0.0000 0.9239
vn 0.2785 -0.6857 0.6725
vn 0.1951 0.0000 0.9808
vn 0.1420 -0.6857 0.7139
vn 0.0000 0.0000 1.0000
vn 0.0000 -0.6857 0.7279
vn -0.0980 0.0000 0.9952
vn -0.0461 -0.8824 0.4683
vn -0.2218 -0.8824 0.4150
vn -0.4714 0.0000 0.8819
vn -0.5556 0.0000 0.8314
vn -0.4044 -0.6857 0.6052
vn -0.6344 0.0000 0.7730
vn -0.2985 -0.8824 0.3638
vn -0.4503 -0.8824 0.1366
vn -0.9569 0.0000 0.2903
vn -0.9808 0.0000 0.1951
vn -0.7139 -0.6857 0.1420
vn -1.0000 0.0000 0.0000
vn -0.7279 -0.6857 0.0000
vn -0.9808 0.0000 -0.1951
vn -0.7139 -0.6857 -0.1420
vn -0.9239 0.0000 -0.3827
vn -0.6725 -0.6857 -0.2785
vn -0.8314 0.0000 -0.5556
vn -0.6052 -0.6857 -0.4044
vn -0.7071 0.0000 -0.7071
vn -0.5147 -0.6857 -0.5147
vn -0.5556 0.0000 -0.8314
vn -0.4044 -0.6857 -0.6052
vn -0.3827 0.0000 -0.9239
vn -0.2785 -0.6857 -0.6725
vn -0.1951 0.0000 -0.9808
vn -0.1420 -0.6857 -0.7139
usemtl Material.005
s off
f 38/1/1 42/2/1 39/3/1
f 39/3/2 42/2/2 40/4/2
f 40/4/3 42/2/3 41/5/3
f 106/6/4 138/7/4 107/8/4
f 107/8/5 138/7/5 108/9/5
f 108/9/6 138/7/6 109/10/6
f 109/10/7 138/7/7 110/11/7
f 110/11/8 138/7/8 111/12/8
f 111/12/9 138/7/9 112/13/9
f 112/13/10 138/7/10 113/14/10
f 113/14/11 138/7/11 114/15/11
f 114/15/12 138/7/12 115/16/12
f 115/16/13 138/7/13 116/17/13
f 116/17/14 138/7/14 117/18/14
f 117/18/15 138/7/15 118/19/15
f 118/19/16 138/7/16 119/20/16
f 119/20/17 138/7/17 120/21/17
f 120/21/18 138/7/18 121/22/18
f 121/22/19 138/7/19 122/23/19
f 125/24/20 138/7/20 126/25/20
f 126/25/21 138/7/21 127/26/21
f 127/26/22 138/7/22 128/27/22
f 128/27/23 138/7/23 129/28/23
f 129/28/24 138/7/24 130/29/24
f 130/29/25 138/7/25 131/30/25
f 131/30/26 138/7/26 132/31/26
f 132/31/27 138/7/27 133/32/27
f 133/32/28 138/7/28 134/33/28
f 134/33/29 138/7/29 135/34/29
f 135/34/30 138/7/30 136/35/30
f 106/36/31 107/37/31 108/38/31 109/39/31 110/40/31 111/41/31 112/42/31 113/43/31 114/44/31 115/45/31 116/46/31 117/47/31 118/48/31 119/49/31 120/50/31 121/51/31 122/52/31 123/53/31 124/54/31 125/55/31 126/56/31 127/57/31 128/58/31 129/59/31 130/60/31 131/61/31 132/62/31 133/63/31 134/64/31 135/65/31 136/66/31 137/67/31
f 136/35/32 138/7/32 137/68/32
f 137/68/33 138/7/33 106/6/33
s 1
f 18/69/34 19/70/35 21/71/35 20/72/34
f 23/73/36 24/74/37 26/75/38 25/76/39
f 25/76/39 26/75/38 28/77/40 27/78/41
f 2/79/42 1/80/42 37/81/42 36/82/42 35/83/42 34/84/42 33/85/42 32/86/42 31/87/42 30/88/42 29/89/42 28/90/40 26/91/38 24/92/37 22/93/42 21/94/35 19/95/35 17/96/42 16/97/42 15/98/42 14/99/42 13/100/42 12/101/42 11/102/42 10/103/42 9/104/42 8/105/42 7/106/42 6/107/42 5/108/42 4/109/42 3/110/42
f 43/111/43 44/112/44 46/113/45 45/114/46
f 45/114/46 46/113/45 48/115/47 47/116/48
f 47/116/48 48/115/47 50/117/49 49/118/50
f 49/118/50 50/117/49 52/119/51 51/120/52
f 51/120/52 52/119/51 54/121/53 53/122/54
f 53/122/54 54/121/53 56/123/55 55/124/56
f 55/124/56 56/123/55 58/125/57 57/126/58
f 57/126/58 58/125/57 60/127/59 59/128/60
f 59/128/60 60/127/59 62/129/61 61/130/62
f 61/130/62 62/129/61 64/131/63 63/132/64
f 63/132/64 64/131/63 66/133/65 65/134/66
f 65/134/66 66/133/65 68/135/67 67/136/68
f 67/136/68 68/135/67 70/137/69 69/138/70
f 69/138/70 70/137/69 72/139/71 71/140/72
f 71/140/72 72/139/71 74/141/73 73/142/74
f 73/142/74 74/141/73 76/143/75 75/144/76
f 75/144/76 76/143/75 78/145/77 77/146/78
f 79/147/79 80/148/80 82/149/81 81/150/82
f 81/150/82 82/149/81 84/151/83 83/152/84
f 86/153/85 87/154/86 89/155/87 88/156/88
f 88/156/88 89/155/87 91/157/89 90/158/90
f 90/158/90 91/157/89 93/159/91 92/160/92
f 92/160/92 93/159/91 95/161/93 94/162/94
f 94/162/94 95/161/93 97/163/95 96/164/96
f 96/164/96 97/163/95 99/165/97 98/166/98
f 98/166/98 99/165/97 101/167/99 100/168/100
f 100/168/100 101/167/99 103/169/101 102/170/102
f 102/170/102 103/169/101 105/171/103 104/172/104
f 104/172/104 105/171/103 44/173/44 43/174/43
f 43/175/43 45/176/46 47/177/48 49/178/50 51/179/52 53/180/54 55/181/56 57/182/58 59/183/60 61/184/62 63/185/64 65/186/66 67/187/68 69/188/70 71/189/72 73/190/74 75/191/76 77/192/78 79/193/79 81/194/82 83/195/84 85/196/31 86/197/85 88/198/88 90/199/90 92/200/92 94/201/94 96/202/96 98/203/98 100/204/100 102/205/102 104/206/104
